<svg width="25" height="25" viewBox="0 0 25 25" fill="none" xmlns="http://www.w3.org/2000/svg">
<path d="M15 17H11V25H15V17Z" fill="white"/>
<path d="M15 0H11V8H15V0Z" fill="white"/>
<path d="M17 10V14H25V10H17Z" fill="white"/>
<path d="M0 10L0 14H8L8 10H0Z" fill="white"/>
<path d="M16.8286 14.1718L14 17L19.6573 22.6565L22.4859 19.8282L16.8286 14.1718Z" fill="white"/>
<path d="M4.82863 2.17177L2 5L7.65725 10.6565L10.4859 7.82823L4.82863 2.17177Z" fill="white"/>
<path d="M14.1714 8.17177L17 11L22.6573 5.34354L19.8286 2.51532L14.1714 8.17177Z" fill="white"/>
<path d="M2.17137 20.1718L5 23L10.6573 17.3435L7.82863 14.5153L2.17137 20.1718Z" fill="white"/>
</svg>
