<svg width="30" height="30" viewBox="0 0 30 30" fill="none" xmlns="http://www.w3.org/2000/svg">
<path d="M15 14.9999H29C28.2067 16.5275 27.1645 18.0732 25.9045 19.5109C21.58 24.507 16.3223 26.5198 14.1756 24.0217C12.6512 22.2605 13.0711 18.7021 15 14.9999Z" stroke="white" stroke-miterlimit="10"/>
<path d="M15 14.9999L22 1C22.7467 2.54557 23.3844 4.36068 23.8511 6.35554C25.4378 13.1668 24.3178 19.439 21.3778 20.3556C19.2778 20.9846 16.82 18.774 15 14.9999Z" stroke="white" stroke-miterlimit="10"/>
<path d="M15 14.9999L8 1C9.54 1.03594 11.22 1.30545 12.9311 1.82663C18.8267 3.65975 22.98 7.90105 22.1867 11.3157C21.6267 13.7059 18.7333 15.0718 15 14.9999Z" stroke="white" stroke-miterlimit="10"/>
<path d="M15 14.9998H1C1.79333 13.4722 2.83554 11.9267 4.09554 10.489C8.41999 5.49284 13.6777 3.48008 15.8244 5.97815C17.3489 7.72141 16.9289 11.2976 15 14.9998Z" stroke="white" stroke-miterlimit="10"/>
<path d="M15 14.9999L8.00004 29C7.25337 27.4544 6.61561 25.6393 6.14894 23.6444C4.56228 16.8331 5.68226 10.5609 8.62226 9.64435C10.7223 8.99737 13.18 11.2258 15 14.9999Z" stroke="white" stroke-miterlimit="10"/>
<path d="M15 14.9998L22 28.9999C20.46 28.9639 18.78 28.6944 17.0689 28.1732C11.1733 26.3401 7.02 22.0986 7.81333 18.684C8.37333 16.2758 11.2667 14.9279 15 14.9998Z" stroke="white" stroke-miterlimit="10"/>
</svg>
