<svg width="39" height="40" viewBox="0 0 39 40" fill="none" xmlns="http://www.w3.org/2000/svg">
<path d="M19.5 39C24.7467 39 29 34.7467 29 29.5C29 24.2533 24.7467 20 19.5 20C14.2533 20 10 24.2533 10 29.5C10 34.7467 14.2533 39 19.5 39Z" stroke="white" stroke-opacity="0.5" stroke-miterlimit="10"/>
<path d="M19.5 20C24.7467 20 29 15.7467 29 10.5C29 5.25329 24.7467 1 19.5 1C14.2533 1 10 5.25329 10 10.5C10 15.7467 14.2533 20 19.5 20Z" stroke="white" stroke-opacity="0.5" stroke-miterlimit="10"/>
<path d="M29 29.5C34.2467 29.5 38.5 25.2467 38.5 20C38.5 14.7533 34.2467 10.5 29 10.5C23.7533 10.5 19.5 14.7533 19.5 20C19.5 25.2467 23.7533 29.5 29 29.5Z" stroke="white" stroke-opacity="0.5" stroke-miterlimit="10"/>
<path d="M10 29.5C15.2467 29.5 19.5 25.2467 19.5 20C19.5 14.7533 15.2467 10.5 10 10.5C4.75329 10.5 0.5 14.7533 0.5 20C0.5 25.2467 4.75329 29.5 10 29.5Z" stroke="white" stroke-opacity="0.5" stroke-miterlimit="10"/>
<path d="M26.2127 36.2136C31.4594 36.2136 35.7127 31.9603 35.7127 26.7136C35.7127 21.4669 31.4594 17.2136 26.2127 17.2136C20.966 17.2136 16.7127 21.4669 16.7127 26.7136C16.7127 31.9603 20.966 36.2136 26.2127 36.2136Z" stroke="white" stroke-opacity="0.5" stroke-miterlimit="10"/>
<path d="M12.7873 22.7656C18.034 22.7656 22.2873 18.5123 22.2873 13.2656C22.2873 8.01892 18.034 3.76562 12.7873 3.76562C7.54062 3.76562 3.28732 8.01892 3.28732 13.2656C3.28732 18.5123 7.54062 22.7656 12.7873 22.7656Z" stroke="white" stroke-opacity="0.5" stroke-miterlimit="10"/>
<path d="M26.2127 22.7656C31.4594 22.7656 35.7127 18.5123 35.7127 13.2656C35.7127 8.01892 31.4594 3.76562 26.2127 3.76562C20.966 3.76562 16.7127 8.01892 16.7127 13.2656C16.7127 18.5123 20.966 22.7656 26.2127 22.7656Z" stroke="white" stroke-opacity="0.5" stroke-miterlimit="10"/>
<path d="M12.7873 36.2136C18.034 36.2136 22.2873 31.9603 22.2873 26.7136C22.2873 21.4669 18.034 17.2136 12.7873 17.2136C7.54062 17.2136 3.28732 21.4669 3.28732 26.7136C3.28732 31.9603 7.54062 36.2136 12.7873 36.2136Z" stroke="white" stroke-opacity="0.5" stroke-miterlimit="10"/>
</svg>
