<svg width="58" height="57" viewBox="0 0 58 57" fill="none" xmlns="http://www.w3.org/2000/svg">
<path d="M14.5 0.5C22.232 0.5 28.5 6.76801 28.5 14.5C28.5 22.232 22.232 28.5 14.5 28.5C6.76801 28.5 0.5 22.232 0.5 14.5C0.5 6.76801 6.76801 0.5 14.5 0.5Z" stroke="white"/>
<path d="M44 1.5C51.4558 1.5 57.5 7.54416 57.5 15C57.5 22.4558 51.4558 28.5 44 28.5C36.5442 28.5 30.5 22.4558 30.5 15C30.5 7.54416 36.5442 1.5 44 1.5Z" stroke="white"/>
<path d="M16 57C23.732 57 30 50.732 30 43C30 35.268 23.732 29 16 29C8.26801 29 2 35.268 2 43C2 50.732 8.26801 57 16 57Z" fill="white"/>
<path d="M44 29.5C51.4558 29.5 57.5 35.5442 57.5 43C57.5 50.4558 51.4558 56.5 44 56.5C36.5442 56.5 30.5 50.4558 30.5 43C30.5 35.5442 36.5442 29.5 44 29.5Z" stroke="white"/>
</svg>
