<svg width="58" height="57" viewBox="0 0 58 57" fill="none" xmlns="http://www.w3.org/2000/svg">
<path d="M14.5 0.5C22.232 0.5 28.5 6.76801 28.5 14.5C28.5 22.232 22.232 28.5 14.5 28.5C6.76801 28.5 0.5 22.232 0.5 14.5C0.5 6.76801 6.76801 0.5 14.5 0.5Z" stroke="white"/>
<path d="M44 1.5C51.4558 1.5 57.5 7.54416 57.5 15C57.5 22.4558 51.4558 28.5 44 28.5C36.5442 28.5 30.5 22.4558 30.5 15C30.5 7.54416 36.5442 1.5 44 1.5Z" stroke="white"/>
<path d="M16 29.5C23.4558 29.5 29.5 35.5442 29.5 43C29.5 50.4558 23.4558 56.5 16 56.5C8.54416 56.5 2.5 50.4558 2.5 43C2.5 35.5442 8.54416 29.5 16 29.5Z" stroke="white"/>
<path d="M44 57C51.732 57 58 50.732 58 43C58 35.268 51.732 29 44 29C36.268 29 30 35.268 30 43C30 50.732 36.268 57 44 57Z" fill="white"/>
</svg>
