<svg width="58" height="57" viewBox="0 0 58 57" fill="none" xmlns="http://www.w3.org/2000/svg">
<path d="M14.5 29C22.5081 29 29 22.5081 29 14.5C29 6.49187 22.5081 0 14.5 0C6.49187 0 0 6.49187 0 14.5C0 22.5081 6.49187 29 14.5 29Z" fill="white"/>
<path d="M44 1.5C51.4558 1.5 57.5 7.54416 57.5 15C57.5 22.4558 51.4558 28.5 44 28.5C36.5442 28.5 30.5 22.4558 30.5 15C30.5 7.54416 36.5442 1.5 44 1.5Z" stroke="white"/>
<path d="M16 29.5C23.4558 29.5 29.5 35.5442 29.5 43C29.5 50.4558 23.4558 56.5 16 56.5C8.54416 56.5 2.5 50.4558 2.5 43C2.5 35.5442 8.54416 29.5 16 29.5Z" stroke="white"/>
<path d="M44 29.5C51.4558 29.5 57.5 35.5442 57.5 43C57.5 50.4558 51.4558 56.5 44 56.5C36.5442 56.5 30.5 50.4558 30.5 43C30.5 35.5442 36.5442 29.5 44 29.5Z" stroke="white"/>
</svg>
