<svg width="28" height="29" viewBox="0 0 28 29" fill="none" xmlns="http://www.w3.org/2000/svg">
<path d="M13.5512 0L14.4023 9.79552L18.5918 0.886111L15.9897 10.3594L23.0269 3.39946L17.2825 11.4228L26.3 7.25L18.1172 12.8728L28.0512 11.9867L18.4118 14.5L28.0512 17.0295L18.1172 16.1434L26.3 21.75L17.2825 17.5772L23.0269 25.6167L15.9897 18.6566L18.5918 28.13L14.4023 19.2205L13.5512 29L12.7002 19.2205L8.51061 28.13L11.1291 18.6566L4.0755 25.6167L9.81987 17.5772L0.802367 21.75L8.9852 16.1434L-0.948792 17.0295L8.69057 14.5L-0.948792 11.9867L8.9852 12.8728L0.802367 7.25L9.81987 11.4228L4.0755 3.39946L11.1291 10.3594L8.51061 0.886111L12.7002 9.79552L13.5512 0Z" fill="white"/>
</svg>
